<svg xmlns="http://www.w3.org/2000/svg" width="265.568" height="325" viewBox="0 0 265.568 325">
  <g id="Group_2" data-name="Group 2" transform="translate(-1427 -333)">
    <g id="Group_1" data-name="Group 1">
      <path id="ixon-illustration" d="M294.165,179.832,167.6,2.818A5.989,5.989,0,0,0,162.521,0h0a6.223,6.223,0,0,0-.686.042c-.076.009-.15.022-.226.034-.139.021-.276.045-.412.075-.1.022-.2.048-.294.075s-.208.06-.31.1-.227.078-.338.123c-.069.028-.136.06-.2.09a6.016,6.016,0,0,0-2.432,1.976L30.831,179.83a6.007,6.007,0,0,0,2.273,8.894c.156.076,15.811,7.766,31.189,24.292,19.01,20.429,29.274,44.705,30.568,72.232H77.327a6,6,0,0,0-6,6V319a6,6,0,0,0,6,6H247.669a6,6,0,0,0,6-6V291.248a6,6,0,0,0-6-6H230.137c1.295-27.527,11.559-51.8,30.567-72.231,15.378-16.526,31.031-24.216,31.179-24.287a6,6,0,0,0,2.282-8.9Zm-152.283,3.5c0-10.869,9.254-19.714,20.621-19.717a20.95,20.95,0,0,1,14.652,5.843,19.152,19.152,0,0,1,5.959,13.862c0,10.867-9.252,19.71-20.621,19.713h0C151.127,203.028,141.882,194.189,141.882,183.328Z" transform="translate(1397.284 333)" fill="#ffcc67" opacity="0.15"/>
      <path id="ixon-illustration-2" data-name="ixon-illustration" d="M294.165,179.832,167.6,2.818A5.989,5.989,0,0,0,162.521,0h0a6.223,6.223,0,0,0-.686.042c-.076.009-.15.022-.226.034-.139.021-.276.045-.412.075-.1.022-.2.048-.294.075s-.208.06-.31.1-.227.078-.338.123c-.069.028-.136.06-.2.09a6.016,6.016,0,0,0-2.432,1.976L30.831,179.83a6.007,6.007,0,0,0,2.273,8.894c.156.076,15.811,7.766,31.189,24.292,19.01,20.429,29.274,44.705,30.568,72.232H77.327a6,6,0,0,0-6,6V319a6,6,0,0,0,6,6H247.669a6,6,0,0,0,6-6V291.248a6,6,0,0,0-6-6H230.137c1.295-27.527,11.559-51.8,30.567-72.231,15.378-16.526,31.031-24.216,31.179-24.287a6,6,0,0,0,2.282-8.9Zm-152.283,3.5c0-10.869,9.254-19.714,20.621-19.717a20.95,20.95,0,0,1,14.652,5.843,19.152,19.152,0,0,1,5.959,13.862c0,10.867-9.252,19.71-20.621,19.713l0,6v-6C151.127,203.028,141.882,194.189,141.882,183.328ZM241.669,313H83.327V297.248H241.669Zm10.592-108.524a124.729,124.729,0,0,0-34.137,80.772l-111.25,0a124.726,124.726,0,0,0-34.139-80.771,137.7,137.7,0,0,0-28.248-23.111L156.514,24.688l-.033,127.477c-15.114,2.758-26.6,15.679-26.6,31.162,0,17.479,14.628,31.7,32.607,31.7h.008c17.982-.005,32.615-14.23,32.617-31.71a31.049,31.049,0,0,0-9.622-22.5,32.694,32.694,0,0,0-17.012-8.677l.033-127.417,112,156.635A137.752,137.752,0,0,0,252.261,204.476Z" transform="translate(1397.284 333)" fill="#ffd169"/>
    </g>
  </g>
</svg>
