<svg xmlns="http://www.w3.org/2000/svg" width="58.018" height="46" viewBox="0 0 58.018 46">
  <g id="Group_3" data-name="Group 3" transform="translate(-1484 -440)">
    <g id="Group_2" data-name="Group 2">
      <g id="Group_1" data-name="Group 1" opacity="0.15">
        <path id="Path_7" data-name="Path 7" d="M57,2.365H1a1,1,0,0,0-1,1v44a1,1,0,0,0,1,1H23a1,1,0,0,0,0-2H12v-42H46v21a1,1,0,0,0,1,1h9v8a1,1,0,0,0,2,0v-31A1,1,0,0,0,57,2.365Z" transform="translate(1484 437.635)" fill="#ffcb66"/>
        <path id="Polygon_1_-_Outline" data-name="Polygon 1 - Outline" d="M11-.757A4.967,4.967,0,0,1,14.536.707l3.757,3.757a4.963,4.963,0,0,1,1.4,2.67A5.058,5.058,0,0,1,17.634,12.1a4.963,4.963,0,0,1-2.877.9H7.243a4.963,4.963,0,0,1-2.877-.9A5.058,5.058,0,0,1,2.309,7.135a4.963,4.963,0,0,1,1.4-2.67L7.464.707A4.967,4.967,0,0,1,11-.757Z" transform="translate(1500 447)" fill="#ffcb66"/>
      </g>
      <path id="Union_1" data-name="Union 1" d="M11,46H1a1,1,0,0,1-1-1V1A1,1,0,0,1,1,0H57a1,1,0,0,1,1,1V31.481a1.007,1.007,0,0,1,.018.19V45.957L23.062,46,23,46Zm1-34V44H22.862l.058,0,33.1-.04V32.19A1,1,0,0,1,56,32V24H47a1,1,0,0,1-1-1V2H12ZM2,44h8V35H2ZM2,33h8V24H2ZM48,22h8V13H48ZM2,22h8V13H2ZM48,11h8V2H48ZM2,11h8V2H2Z" transform="translate(1484 440)" fill="#ffcb66"/>
      <path id="Path_8" data-name="Path 8" d="M1496.962,474.826a1,1,0,0,1-.656-1.755l8.3-7.219a1,1,0,0,1,1.357.041l6.691,6.566,7.448-6.6a1,1,0,0,1,1.363.034l7.085,6.934h14.188a1,1,0,0,1,0,2h-14.6a1,1,0,0,1-.7-.285l-6.711-6.568-7.449,6.6a1,1,0,0,1-1.364-.035l-6.7-6.572-7.607,6.613A1,1,0,0,1,1496.962,474.826Z" transform="translate(-2)" fill="#ffcb66"/>
      <path id="Polygon_1_-_Outline-2" data-name="Polygon 1 - Outline" d="M11,1.243a2.991,2.991,0,0,0-2.121.879L5.121,5.879A3,3,0,0,0,7.243,11h7.515a3,3,0,0,0,2.121-5.121L13.121,2.121A2.991,2.991,0,0,0,11,1.243m0-2A4.967,4.967,0,0,1,14.536.707l3.757,3.757a4.963,4.963,0,0,1,1.4,2.67A5.058,5.058,0,0,1,17.634,12.1a4.963,4.963,0,0,1-2.877.9H7.243a4.963,4.963,0,0,1-2.877-.9A5.058,5.058,0,0,1,2.309,7.135a4.963,4.963,0,0,1,1.4-2.67L7.464.707A4.967,4.967,0,0,1,11-.757Z" transform="translate(1500 447)" fill="#ffcb66"/>
    </g>
  </g>
</svg>
